<svg xmlns="http://www.w3.org/2000/svg" width="256" height="256" viewBox="0 0 256 256" role="img" aria-label="MIKFAST">
  <defs>
    <linearGradient id="g" x1="32" y1="32" x2="224" y2="224" gradientUnits="userSpaceOnUse">
      <stop offset="0" stop-color="#40C4FF"/>
      <stop offset="1" stop-color="#2B6FA8"/>
    </linearGradient>
  </defs>
  <rect x="18" y="18" width="220" height="220" rx="56" fill="url(#g)"/>
  <!-- stylized M + signal bolt -->
  <path fill="#fff" d="M70 170V92c0-8.8 10.8-12.9 16.6-6.7l25.4 27.2 25.4-27.2C143.2 79.1 154 83.2 154 92v78h-18V118.3l-18.6 19.9c-3.3 3.6-9.1 3.6-12.4 0L86 118.3V170H70Z"/>
  <path fill="#fff" opacity=".92" d="M176.8 84.5c6.9 5.6 11.2 14.1 11.2 23.5 0 9.4-4.3 17.9-11.2 23.5l-11.3-14c2.8-2.3 4.5-5.7 4.5-9.5s-1.7-7.2-4.5-9.5l11.3-14Z"/>
  <path fill="#fff" opacity=".72" d="M197.6 68.5c11.3 9.1 18.4 23 18.4 39.5 0 16.5-7.1 30.4-18.4 39.5l-11.3-14c7.1-5.7 11.7-14.5 11.7-25.5s-4.6-19.8-11.7-25.5l11.3-14Z"/>
</svg>
